<?xml version="1.0" encoding="UTF-8"?>
<!DOCTYPE svg PUBLIC "-//W3C//DTD SVG 1.1//EN" "http://www.w3.org/Graphics/SVG/1.1/DTD/svg11.dtd">
<svg xmlns="http://www.w3.org/2000/svg" version="1.1" width="566px" height="391px" style="shape-rendering:geometricPrecision; text-rendering:geometricPrecision; image-rendering:optimizeQuality; fill-rule:evenodd; clip-rule:evenodd" xmlns:xlink="http://www.w3.org/1999/xlink">
<g><path style="opacity:1" fill="#ed1703" d="M -0.5,-0.5 C 188.167,-0.5 376.833,-0.5 565.5,-0.5C 565.5,129.833 565.5,260.167 565.5,390.5C 376.833,390.5 188.167,390.5 -0.5,390.5C -0.5,260.167 -0.5,129.833 -0.5,-0.5 Z"/></g>
<g><path style="opacity:1" fill="#fffcfb" d="M 279.5,35.5 C 293.784,37.1873 308.117,38.6873 322.5,40C 332.184,42.8938 341.85,45.8938 351.5,49C 359.949,54.4643 368.615,59.4643 377.5,64C 387.707,73.2093 398.207,82.0426 409,90.5C 417.06,103.953 424.06,117.953 430,132.5C 432.341,139.213 434.674,145.88 437,152.5C 438.219,160.471 439.219,168.471 440,176.5C 441.577,179.751 443.577,182.751 446,185.5C 446.256,188.557 446.756,191.557 447.5,194.5C 445.476,196.69 443.643,199.023 442,201.5C 440.907,209.241 439.407,216.908 437.5,224.5C 439.09,226.656 440.757,228.822 442.5,231C 442.167,231.5 441.833,232 441.5,232.5C 439.677,231.253 437.677,230.586 435.5,230.5C 430.465,246.433 423.965,261.766 416,276.5C 408.058,285.444 399.725,294.11 391,302.5C 390.506,304.134 390.34,305.801 390.5,307.5C 389.07,307.579 387.736,307.246 386.5,306.5C 378.663,311.251 370.996,316.251 363.5,321.5C 362.738,322.628 362.071,323.795 361.5,325C 358.833,325.333 356.167,325.667 353.5,326C 348.123,329.091 342.456,331.424 336.5,333C 332.312,335.863 328.146,338.697 324,341.5C 324.131,344.095 323.964,346.595 323.5,349C 322.5,349.667 321.5,349.667 320.5,349C 319.324,346.314 317.657,343.981 315.5,342C 312.03,342.908 308.364,343.408 304.5,343.5C 304.723,345.342 305.057,347.175 305.5,349C 304.723,353.642 302.556,354.475 299,351.5C 298.51,350.207 298.343,348.873 298.5,347.5C 296.213,347.724 294.047,348.391 292,349.5C 290.286,348.924 289.119,347.757 288.5,346C 282.926,344.697 277.426,343.197 272,341.5C 267.744,341.472 264.077,342.805 261,345.5C 259.758,343.459 257.925,342.293 255.5,342C 252.584,337.929 248.584,335.929 243.5,336C 244.861,337.584 245.528,339.418 245.5,341.5C 244.5,341.5 243.5,341.5 242.5,341.5C 242.753,343.827 242.086,345.827 240.5,347.5C 242.894,349.68 245.227,351.847 247.5,354C 245.22,359.342 241.387,361.508 236,360.5C 235.259,357.438 235.425,354.438 236.5,351.5C 235.009,350.756 233.509,350.09 232,349.5C 231.505,347.527 231.338,345.527 231.5,343.5C 230.127,343.657 228.793,343.49 227.5,343C 229.158,342.275 229.658,341.108 229,339.5C 226.472,336.244 224.306,332.744 222.5,329C 216.04,328.527 210.374,326.194 205.5,322C 197.782,314.943 190.115,307.943 182.5,301C 179.965,300.383 177.632,300.883 175.5,302.5C 173.121,300.958 170.454,300.291 167.5,300.5C 163.82,300.779 160.153,301.112 156.5,301.5C 156.5,302.833 156.5,304.167 156.5,305.5C 154.453,305.511 152.453,305.844 150.5,306.5C 148.109,305.809 148.109,304.809 150.5,303.5C 150.167,303.167 149.833,302.833 149.5,302.5C 148.032,304.333 146.365,304.666 144.5,303.5C 146.139,302.084 146.973,300.417 147,298.5C 142.403,294.182 137.903,289.682 133.5,285C 132.167,284.333 130.833,284.333 129.5,285C 127.465,287.315 125.132,288.148 122.5,287.5C 125.735,285.939 128.402,283.606 130.5,280.5C 128.91,278.32 127.576,275.987 126.5,273.5C 125.109,274.645 123.776,274.645 122.5,273.5C 124.806,271.041 125.973,268.041 126,264.5C 130.725,258.78 135.725,253.446 141,248.5C 141.936,245.208 141.436,242.208 139.5,239.5C 141.857,236.977 142.857,233.977 142.5,230.5C 140.988,222.787 139.321,215.121 137.5,207.5C 134.905,206.287 132.405,204.953 130,203.5C 127.693,205.439 125.86,207.772 124.5,210.5C 122.122,211.956 120.122,211.623 118.5,209.5C 120.129,206.374 122.295,203.707 125,201.5C 125.143,197.349 124.977,193.182 124.5,189C 124.544,185.43 125.044,181.93 126,178.5C 128.062,176.099 129.729,173.433 131,170.5C 132.576,163.713 134.576,157.046 137,150.5C 141.525,141.921 145.859,133.254 150,124.5C 150.534,120.535 150.034,116.702 148.5,113C 148.446,108.125 150.446,104.458 154.5,102C 158.057,100.592 161.724,99.5921 165.5,99C 170.5,93.3333 175.5,87.6667 180.5,82C 186.14,76.6946 191.807,71.3612 197.5,66C 199.081,65.2935 200.581,64.4601 202,63.5C 203.17,57.6406 205.67,52.4739 209.5,48C 208.5,47.6667 207.5,47.3333 206.5,47C 206.833,46.6667 207.167,46.3333 207.5,46C 212.939,47.1559 218.605,47.9893 224.5,48.5C 234.448,45.5618 244.448,42.7285 254.5,40C 256.779,39.5272 258.779,38.5272 260.5,37C 267.013,36.8279 273.347,36.3279 279.5,35.5 Z"/></g>
<g><path style="opacity:1" fill="#ed1a05" d="M 376.5,289.5 C 376.667,227.166 376.5,164.832 376,102.5C 375.5,102 375,101.5 374.5,101C 333.501,100.5 292.501,100.333 251.5,100.5C 251.855,97.9333 252.521,95.4333 253.5,93C 252.576,91.1886 251.743,91.3553 251,93.5C 249.766,97.4818 249.1,101.482 249,105.5C 249.717,104.956 250.217,104.289 250.5,103.5C 291.761,102.506 333.094,102.173 374.5,102.5C 374.5,165.5 374.5,228.5 374.5,291.5C 371.872,293.488 369.205,295.488 366.5,297.5C 314.167,297.5 261.833,297.5 209.5,297.5C 204.142,293.137 198.809,288.803 193.5,284.5C 193.5,223.833 193.5,163.167 193.5,102.5C 208.5,102.5 223.5,102.5 238.5,102.5C 238.5,103.167 238.833,103.5 239.5,103.5C 240.058,104.79 241.058,105.623 242.5,106C 228.805,106.674 215.805,110.007 203.5,116C 201.667,117.833 199.833,119.667 198,121.5C 197.009,176.916 197.342,232.249 199,287.5C 200.419,288.46 201.919,289.293 203.5,290C 225.405,292.392 247.072,291.058 268.5,286C 269,285.5 269.5,285 270,284.5C 270.167,263.825 270.667,243.159 271.5,222.5C 280.05,244.426 288.717,266.259 297.5,288C 298.833,288.667 300.167,289.333 301.5,290C 321.989,292.27 342.322,291.27 362.5,287C 364.519,286.55 366.352,285.717 368,284.5C 368.667,229.167 368.667,173.833 368,118.5C 365.794,111.979 361.294,108.146 354.5,107C 338.307,104.993 322.64,106.993 307.5,113C 303.581,114.54 300.081,116.707 297,119.5C 295.688,141.412 295.021,163.412 295,185.5C 286,161.833 277,138.167 268,114.5C 262.763,107.973 255.93,105.139 247.5,106C 245.677,105.003 244.01,103.836 242.5,102.5C 241.539,99.5739 240.873,96.5739 240.5,93.5C 241.822,93.67 242.989,93.3366 244,92.5C 245.341,83.8012 249.674,77.1345 257,72.5C 257.956,69.6229 259.289,66.9562 261,64.5C 262.337,65.7649 263.837,66.2649 265.5,66C 268.87,62.965 271.87,59.6317 274.5,56C 278.152,55.111 281.818,54.7776 285.5,55C 288.059,57.4388 290.392,60.1054 292.5,63C 294.5,63.6667 296.5,63.6667 298.5,63C 301.742,59.219 305.742,57.0523 310.5,56.5C 310.238,57.9778 310.571,59.3112 311.5,60.5C 317.957,66.8965 325.29,72.0631 333.5,76C 343.229,75.7216 352.563,77.3882 361.5,81C 378.365,90.8989 391.531,104.399 401,121.5C 401,126.833 401,132.167 401,137.5C 401.465,138.931 402.299,140.097 403.5,141C 406.018,142.502 408.518,144.002 411,145.5C 420.44,171.073 421.773,197.073 415,223.5C 408.266,245.97 397.6,266.303 383,284.5C 381.223,286.79 379.056,288.457 376.5,289.5 Z"/></g>
<g><path style="opacity:1" fill="#fde4e1" d="M 251.5,100.5 C 250.89,101.391 250.557,102.391 250.5,103.5C 250.217,104.289 249.717,104.956 249,105.5C 249.1,101.482 249.766,97.4818 251,93.5C 251.743,91.3553 252.576,91.1886 253.5,93C 252.521,95.4333 251.855,97.9333 251.5,100.5 Z"/></g>
<g><path style="opacity:1" fill="#e64436" d="M 251.5,100.5 C 292.501,100.333 333.501,100.5 374.5,101C 375,101.5 375.5,102 376,102.5C 376.5,164.832 376.667,227.166 376.5,289.5C 376.167,290.5 375.5,291.167 374.5,291.5C 374.5,228.5 374.5,165.5 374.5,102.5C 333.094,102.173 291.761,102.506 250.5,103.5C 250.557,102.391 250.89,101.391 251.5,100.5 Z"/></g>
<g><path style="opacity:1" fill="#fffdfd" d="M 242.5,102.5 C 244.01,103.836 245.677,105.003 247.5,106C 255.93,105.139 262.763,107.973 268,114.5C 277,138.167 286,161.833 295,185.5C 295.021,163.412 295.688,141.412 297,119.5C 300.081,116.707 303.581,114.54 307.5,113C 322.64,106.993 338.307,104.993 354.5,107C 361.294,108.146 365.794,111.979 368,118.5C 368.667,173.833 368.667,229.167 368,284.5C 366.352,285.717 364.519,286.55 362.5,287C 342.322,291.27 321.989,292.27 301.5,290C 300.167,289.333 298.833,288.667 297.5,288C 288.717,266.259 280.05,244.426 271.5,222.5C 270.667,243.159 270.167,263.825 270,284.5C 269.5,285 269,285.5 268.5,286C 247.072,291.058 225.405,292.392 203.5,290C 201.919,289.293 200.419,288.46 199,287.5C 197.342,232.249 197.009,176.916 198,121.5C 199.833,119.667 201.667,117.833 203.5,116C 215.805,110.007 228.805,106.674 242.5,106C 241.058,105.623 240.058,104.79 239.5,103.5C 240.209,102.596 241.209,102.263 242.5,102.5 Z"/></g>
<g><path style="opacity:1" fill="#e64335" d="M 236.5,99.5 C 237.401,100.29 238.068,101.29 238.5,102.5C 223.5,102.5 208.5,102.5 193.5,102.5C 193.5,163.167 193.5,223.833 193.5,284.5C 192.29,284.068 191.29,283.401 190.5,282.5C 191.333,222.668 191.833,162.668 192,102.5C 192.5,102 193,101.5 193.5,101C 208.006,100.831 222.339,100.331 236.5,99.5 Z"/></g>
<g><path style="opacity:1" fill="#ed1905" d="M 236.5,99.5 C 222.339,100.331 208.006,100.831 193.5,101C 193,101.5 192.5,102 192,102.5C 191.833,162.668 191.333,222.668 190.5,282.5C 168.544,260.87 156.044,234.536 153,203.5C 152.333,191.833 152.333,180.167 153,168.5C 157.13,157.041 162.964,146.541 170.5,137C 174.535,134.993 178.535,132.993 182.5,131C 184.617,129.269 186.117,127.102 187,124.5C 188.403,115.311 188.903,106.144 188.5,97C 193.84,96.5664 199.173,96.7331 204.5,97.5C 209.048,97.3903 213.381,96.3903 217.5,94.5C 220.993,95.7534 224.493,95.7534 228,94.5C 231.525,95.0117 234.358,96.6784 236.5,99.5 Z"/></g>
<g><path style="opacity:1" fill="#e6483a" d="M 209.5,297.5 C 261.833,297.5 314.167,297.5 366.5,297.5C 366.027,298.906 365.027,299.573 363.5,299.5C 312.997,299.168 262.664,299.501 212.5,300.5C 211.167,299.833 210.167,298.833 209.5,297.5 Z"/></g>
<g><path style="opacity:1" fill="#ed1b06" d="M 212.5,300.5 C 262.664,299.501 312.997,299.168 363.5,299.5C 348.095,312.857 330.095,319.523 309.5,319.5C 309.5,317.5 309.5,315.5 309.5,313.5C 308.127,313.343 306.793,313.51 305.5,314C 303.7,320.423 301.033,320.923 297.5,315.5C 296.522,315.977 295.689,316.643 295,317.5C 293.333,316.167 291.667,316.167 290,317.5C 289.612,316.572 288.945,315.905 288,315.5C 277.099,316.142 266.266,316.142 255.5,315.5C 254.452,316.383 253.285,317.05 252,317.5C 237.681,314.422 224.514,308.755 212.5,300.5 Z"/></g>
</svg>
